<svg width="121" height="26" viewBox="0 0 121 26" fill="none" xmlns="http://www.w3.org/2000/svg">
<rect x="116.5" width="4" height="25.9505" fill="#008FBE"/>
<rect x="112.5" width="4" height="25.9505" fill="#C2D500"/>
<rect x="108.5" width="4" height="25.9505" fill="#FFD300"/>
<rect x="104.5" width="4" height="25.9505" fill="#EA0029"/>
<rect x="93.5001" width="11" height="25.9505" fill="#FF6B00"/>
<path fill-rule="evenodd" clip-rule="evenodd" d="M17.0901 13.8931C16.4601 14.2901 15.8301 14.4886 15.2001 14.687L21.5001 26H15.2001L9.74006 15.6794H5.96006V26H0.500061V0H11.2101C12.6801 0 13.9401 0.198473 14.9901 0.59542C16.0401 0.992366 17.0901 1.58779 17.9301 2.38168C18.5601 2.9771 19.1901 3.96947 19.6101 4.76336C20.0301 5.75572 20.2401 6.74809 20.2401 7.93893C20.2401 8.93129 20.0301 9.72518 19.8201 10.5191L19.8201 10.5191C19.6101 11.313 19.1901 11.9084 18.7701 12.5038C18.1401 13.0992 17.7201 13.4962 17.0901 13.8931ZM10.5801 11.313C11.8401 11.313 12.8901 11.1145 13.5201 10.5191C14.1501 9.72519 14.5701 8.9313 14.5701 7.93893C14.5701 6.94657 14.1501 6.15267 13.5201 5.55725C12.6801 4.96183 11.8401 4.56489 10.5801 4.56489H5.54006V11.313H10.5801Z" fill="black"/>
<path fill-rule="evenodd" clip-rule="evenodd" d="M31.936 0H35.8676L45.5001 26H40.1924L38.6197 21.4351H29.3804L27.8078 26H22.5001L31.936 0ZM34.0984 7.54198L30.7565 17.0687H37.2437L34.0984 7.54198Z" fill="black"/>
<path fill-rule="evenodd" clip-rule="evenodd" d="M64.4788 2.38169C65.0852 3.17558 65.6916 3.96947 66.0958 4.96183C66.2979 5.9542 66.5001 6.94656 66.5001 8.1374C66.5001 9.32824 66.2979 10.3206 65.8937 11.313C65.4894 12.3053 65.0852 13.0992 64.2767 13.8931C63.4681 14.687 62.4575 15.2824 61.4469 15.6794C60.4362 16.0763 59.2235 16.2748 57.8086 16.2748H52.7554V26H47.5001V0H57.8086C59.2235 0 60.4362 0.198473 61.649 0.59542C62.8618 0.992366 63.6703 1.58779 64.4788 2.38168L64.4788 2.38169ZM57.6064 11.7099C58.8192 11.7099 59.8298 11.313 60.4362 10.7176C61.0426 10.1221 61.4469 9.12977 61.4469 8.1374C61.4469 7.14504 61.0426 6.15267 60.4362 5.55725C59.8298 4.96183 58.8192 4.56489 57.6064 4.56489H52.7554V11.7099H57.6064Z" fill="black"/>
<path fill-rule="evenodd" clip-rule="evenodd" d="M85.2767 2.38168C86.0852 3.17557 86.4894 3.96947 86.8937 4.96183C87.2979 5.9542 87.5001 6.94656 87.5001 8.1374C87.5001 9.32824 87.2979 10.3206 86.8937 11.313C86.4894 12.3053 86.0852 13.0992 85.2767 13.8931C84.4681 14.687 83.4575 15.2824 82.4469 15.6794C81.4362 16.0763 80.2235 16.2748 78.8086 16.2748H73.7554V26H68.5001V0H78.8086C80.2235 0 81.4362 0.198473 82.4469 0.59542C83.6596 0.992366 84.4681 1.58779 85.2767 2.38168ZM78.6064 11.7099C79.8192 11.7099 80.8298 11.313 81.4362 10.7176C82.0426 10.1221 82.4469 9.12977 82.4469 8.1374C82.4469 7.14504 82.0426 6.15267 81.4362 5.55725C80.8298 4.96183 79.8192 4.56489 78.6064 4.56489H73.7554V11.7099H78.6064Z" fill="black"/>
</svg>
